<?xml version="1.0" encoding="utf-8"?>
<!-- Generator: Adobe Illustrator 26.3.1, SVG Export Plug-In . SVG Version: 6.00 Build 0)  -->
<svg version="1.1" id="レイヤー_1" xmlns="http://www.w3.org/2000/svg" xmlns:xlink="http://www.w3.org/1999/xlink" x="0px"
	 y="0px" viewBox="0 0 20 2" style="enable-background:new 0 0 20 2;" xml:space="preserve">
<style type="text/css">
	.st0{opacity:0.5;enable-background:new;}
</style>
<path d="M20,1.7c0,0-0.5-0.1-1.5-0.2c-2.5-0.3-4.3,0.4-8.3,0S2.8,2.1,0,1.7V2h20V1.7z"/>
<path class="st0" d="M17.4,1c-1.2,0-2.2-0.4-3.6-0.4c-1.4,0-3.6,0.6-5.3,0.6C6.4,1.2,5.2,0,3,0C1.9,0,1,0.3,0,0.5V2h8.6H20V0.5 C19.2,0.8,18.3,1,17.4,1z"/>
<path class="st0" d="M14,1.4c-2.3,0-4.1-1-5.8-1c-1.5,0-3.1,1.1-4.9,1.1C1.6,1.5,0.9,1.3,0,1v1h6.9H20V1C18.4,0.5,16.4,1.4,14,1.4z"/>
</svg>
