<?xml version="1.0" encoding="utf-8"?>
<!-- Generator: Adobe Illustrator 26.3.1, SVG Export Plug-In . SVG Version: 6.00 Build 0)  -->
<svg version="1.1" id="レイヤー_1" xmlns="http://www.w3.org/2000/svg" xmlns:xlink="http://www.w3.org/1999/xlink" x="0px"
	 y="0px" viewBox="0 0 20 2" style="enable-background:new 0 0 20 2;" xml:space="preserve">
<style type="text/css">
	.st0{opacity:0.5;enable-background:new    ;}
</style>
<path class="st0" d="M20,1.1c-1.7-0.5-4.1,0.4-5.7,0.5c-2.7,0.2-4.5-1.5-7.1-1.2C5.4,0.6,4.5,1.1,3.1,1.1C1.7,1.2,0,0.4,0,0.4V2h20
	V1.1z"/>
<path class="st0" d="M20,0.3c-2.3,0.9-4.3,0.2-6.6,0.3C11.1,0.7,10.1,1.2,8,0.9C6.4,0.8,4.6,0,3,0S0.2,0.6,0,0.8V2h20V0.3z"/>
<path d="M20,1.5C18.3,1,14.7,2,10.8,1.6C6.9,1.2,2.5,1.2,0,1.7V2h20V1.5z"/>
</svg>
