<?xml version="1.0" encoding="utf-8"?>
<!-- Generator: Adobe Illustrator 26.3.1, SVG Export Plug-In . SVG Version: 6.00 Build 0)  -->
<svg version="1.1" id="レイヤー_1" xmlns="http://www.w3.org/2000/svg" xmlns:xlink="http://www.w3.org/1999/xlink" x="0px"
	 y="0px" viewBox="0 0 56 56" style="enable-background:new 0 0 56 56;" xml:space="preserve">
<path d="M50,43H34c-1.1,0-2-0.9-2-2V15c0-1.1,0.9-2,2-2h16c1.1,0,2,0.9,2,2v26C52,42.1,51.1,43,50,43z M35,41h14c0.6,0,1-0.4,1-1V16
	c0-0.6-0.4-1-1-1H35c-0.6,0-1,0.4-1,1v24C34,40.6,34.4,41,35,41z"/>
<path d="M22,43H6c-1.1,0-2-0.9-2-2V15c0-1.1,0.9-2,2-2h16c1.1,0,2,0.9,2,2v26C24,42.1,23.1,43,22,43z M7,41h14c0.6,0,1-0.4,1-1V16
	c0-0.6-0.4-1-1-1H7c-0.6,0-1,0.4-1,1v24C6,40.6,6.4,41,7,41z"/>
</svg>
