<?xml version="1.0" encoding="utf-8"?>
<!-- Generator: Adobe Illustrator 26.3.1, SVG Export Plug-In . SVG Version: 6.00 Build 0)  -->
<svg version="1.1" id="レイヤー_1" xmlns="http://www.w3.org/2000/svg" xmlns:xlink="http://www.w3.org/1999/xlink" x="0px"
	 y="0px" viewBox="0 0 56 56" style="enable-background:new 0 0 56 56;" xml:space="preserve">
<path d="M49,34H24c-1.1,0-2-0.9-2-2V7c0-1.1,0.9-2,2-2h25c1.1,0,2,0.9,2,2v25C51,33.1,50.1,34,49,34z M25,32h23c0.6,0,1-0.4,1-1V8
	c0-0.6-0.4-1-1-1H25c-0.6,0-1,0.4-1,1v23C24,31.6,24.4,32,25,32z"/>
<path d="M32,51H7c-1.1,0-2-0.9-2-2V24c0-1.1,0.9-2,2-2h25c1.1,0,2,0.9,2,2v25C34,50.1,33.1,51,32,51z M8,49h23c0.6,0,1-0.4,1-1V25
	c0-0.6-0.4-1-1-1H8c-0.6,0-1,0.4-1,1v23C7,48.6,7.4,49,8,49z"/>
</svg>
