<?xml version="1.0" encoding="utf-8"?>
<!-- Generator: Adobe Illustrator 26.3.1, SVG Export Plug-In . SVG Version: 6.00 Build 0)  -->
<svg version="1.1" id="レイヤー_1" xmlns="http://www.w3.org/2000/svg" xmlns:xlink="http://www.w3.org/1999/xlink" x="0px"
	 y="0px" viewBox="0 0 56 56" style="enable-background:new 0 0 56 56;" xml:space="preserve">
<path d="M13,50V34c0-1.1,0.9-2,2-2h26c1.1,0,2,0.9,2,2v16c0,1.1-0.9,2-2,2H15C13.9,52,13,51.1,13,50z M15,35v14c0,0.6,0.4,1,1,1h24
	c0.6,0,1-0.4,1-1V35c0-0.6-0.4-1-1-1H16C15.4,34,15,34.4,15,35z"/>
<path d="M13,22V6c0-1.1,0.9-2,2-2h26c1.1,0,2,0.9,2,2v16c0,1.1-0.9,2-2,2H15C13.9,24,13,23.1,13,22z M15,7v14c0,0.6,0.4,1,1,1h24
	c0.6,0,1-0.4,1-1V7c0-0.6-0.4-1-1-1H16C15.4,6,15,6.4,15,7z"/>
</svg>
